#N canvas 78 0 1360 666 10;
#X obj 60 21 receive fromGUI;
#X obj 57 53 route list;
#X obj 529 38 receive fromSystem;
#X obj 530 65 route list;
#X obj 519 119 route /tilts;
#X obj 1499 23 loadbang;
#X obj 1499 101 soundfiler;
#X obj 1629 16 table mySound1 88200;
#X msg 1499 61 read snare.aif mySound1;
#X obj 1502 143 loadbang;
#X obj 1628 143 table mySound2 88200;
#X msg 1502 183 read cl_hihat.aif mySound2;
#X obj 1502 229 soundfiler;
#X obj 1505 269 loadbang;
#X msg 1505 303 read open_hh.aif mySound3;
#X obj 1505 345 soundfiler;
#X obj 1631 268 table mySound3 88200;
#X obj -9 498 *~;
#X obj 37 460 line~;
#X msg 27 359 \$1 25;
#X obj -32 315 osc~ 440;
#X obj 89 187 unpack 0 0 0 0 0 0 0 0;
#X obj 315 139 tgl 15 0 empty empty empty 17 7 0 10 -262144 -1 -1 0
1;
#X obj 429 236 float;
#X obj 494 235 + 1;
#X obj 434 373 hradio 15 1 0 8 empty empty empty 0 -8 0 10 -262144
-1 -1 6;
#X floatatom 426 278 5 0 0 0 - - -, f 5;
#X obj 406 194 metro 500;
#X obj 432 316 mod 8;
#X obj 430 402 select 0 1 2 3 4 5 6 7;
#X obj 80 409 float;
#X obj 117 410 float;
#X obj 154 409 float;
#X obj 190 411 float;
#X obj 96 305 int;
#X obj 93 343 mtof;
#X obj 137 308 int;
#X obj 134 346 mtof;
#X obj 177 309 int;
#X obj 171 355 mtof;
#X obj 218 313 int;
#X obj 215 351 mtof;
#X obj 82 444 float;
#X obj 117 446 float;
#X obj 154 446 float;
#X obj 193 442 float;
#X obj 268 317 int;
#X obj 265 355 mtof;
#X obj 309 320 int;
#X obj 306 358 mtof;
#X obj 349 321 int;
#X obj 343 367 mtof;
#X obj 390 325 int;
#X obj 387 363 mtof;
#X obj 95 263 + 66;
#X obj 136 266 + 66;
#X obj 176 267 + 66;
#X obj 219 273 + 66;
#X obj 267 275 + 66;
#X obj 308 278 + 66;
#X obj 348 279 + 66;
#X obj 391 285 + 66;
#X obj -26 368 *~;
#X obj 93 221 * 20;
#X obj 134 224 * 20;
#X obj 174 225 * 20;
#X obj 217 231 * 20;
#X obj 265 233 * 20;
#X obj 306 236 * 20;
#X obj 346 237 * 20;
#X obj 389 243 * 20;
#X obj 532 175 unpack 0 0;
#X obj 523 308 t b f;
#X obj 59 96 route /myVolumeKnob /myMultiSlider /myGrid /myPianoToggle
/myDrumToggle /myResetButton;
#X obj 587 315 t b f;
#X obj 587 284 + 500;
#X obj 775 88 tgl 15 0 empty empty empty 17 7 0 10 -262144 -1 -1 0
1;
#X obj 784 133 metro 500;
#X obj 780 177 float;
#X floatatom 784 229 5 0 0 0 - - -, f 5;
#X obj 780 256 mod 4;
#X obj 780 301 hradio 15 1 0 8 empty empty empty 0 -8 0 10 -262144
-1 -1 2;
#X obj 834 175 + 1;
#X obj 879 30 unpack 0 0 0;
#X obj 860 126 select 0 1 2;
#X obj 861 240 tabwrite row0;
#X obj 948 241 tabwrite row1;
#X obj 534 281 + 500;
#X obj 534 212 * 400;
#N canvas 0 50 450 250 (subpatch) 0;
#X array row0 4 float 3;
#A 0 0 0 -9.31323e-009 -1.86265e-009;
#X coords 0 1 4 -1 200 140 1;
#X restore 1192 23 graph;
#N canvas 0 50 450 250 (subpatch) 0;
#X array row2 4 float 3;
#A 0 0.0142857 0.0142857 0.0142857 0.0142857;
#X coords 0 1 4 -1 200 140 1;
#X restore 1191 371 graph;
#N canvas 0 50 450 250 (subpatch) 0;
#X array row1 4 float 3;
#A 0 0 0 -1.86265e-009 0;
#X coords 0 1 4 -1 200 140 1;
#X restore 1190 196 graph;
#X obj 959 196 int;
#X obj 1076 179 int;
#X obj 1022 173 int;
#X obj 716 328 tabread row0;
#X obj 800 330 tabread row1;
#X obj 894 333 tabread row2;
#X obj 670 372 select 1;
#X obj 814 381 select 1;
#X obj 904 380 select 1;
#X obj 699 630 *~;
#X obj 807 621 *~;
#X obj 901 631 *~;
#X obj 586 214 * 400;
#X msg 671 440 0 \, 1 \$1;
#X obj 682 485 line~;
#X obj 677 518 *~ 88200;
#X obj 661 546 tabread4~ mySound1;
#X msg 812 449 0 \, 1 \$1;
#X obj 823 494 line~;
#X obj 818 527 *~ 88200;
#X obj 802 555 tabread4~ mySound2;
#X msg 944 453 0 \, 1 \$1;
#X obj 955 498 line~;
#X obj 950 531 *~ 88200;
#X obj 934 559 tabread4~ mySound3;
#X obj 670 412 int 1000;
#X obj 811 421 int 1000;
#X obj 943 425 int 1000;
#X obj 1037 241 tabwrite row2;
#X obj 692 6 bng 15 250 50 0 empty empty empty 17 7 0 10 -262144 -1
-1;
#X msg 758 23 2 2 1;
#X obj 700 64 bng 15 250 50 0 empty empty empty 17 7 0 10 -262144 -1
-1;
#X msg 757 64 3 2 1;
#X obj 712 113 bng 15 250 50 0 empty empty empty 17 7 0 10 -262144
-1 -1;
#X msg 712 133 2 2 0;
#X obj 880 70 int;
#X obj 911 76 int;
#X obj 942 78 int;
#X obj 1041 51 t b b b;
#X obj 1009 13 bng 15 250 50 0 empty empty empty 17 7 0 10 -262144
-1 -1;
#X obj 354 164 bng 15 250 50 0 empty empty empty 17 7 0 10 -262144
-1 -1;
#X obj 406 161 int 0;
#X obj 560 541 sel;
#X obj 123 690 send toSystem;
#X obj 134 612 tgl 15 0 empty empty empty 17 7 0 10 -262144 -1 -1 0
1;
#X obj 241 593 spigot 0;
#X obj 350 595 int 1;
#X msg 120 656 list /flash \$1;
#X obj 382 630 int 0;
#X obj -5 574 dac~;
#X obj 546 431 / 100;
#X obj 601 431 / 100;
#X obj 550 497 int;
#X obj 608 498 int;
#X obj 530 346 float;
#X obj 595 349 float;
#X obj 544 458 t b i;
#X obj 602 459 t b i;
#X obj 491 598 t b;
#X text 44 169 This section does the synth sequencing;
#X text 892 263 Write to arrays from grid output;
#X text 982 377 Read from arrays and play sound if value is 1;
#X text 65 560 Turn gate on/off depending on closeness of tempos;
#X text 236 672 When gate is open \, flash turns on/off with tempo
;
#X text 558 133 Tilt controls tempos for the two sequencers;
#X text 914 306 This section does the drum kit sequencing;
#X text 335 131 This sets both counters to 0;
#X text 417 488 Cast tempos to int for comparison;
#X msg 278 166 \$1 100;
#X obj 691 696 dac~;
#X obj 777 700 dac~;
#X obj 853 706 dac~;
#X obj -12 535 *~ 0.3;
#X obj 279 198 line~;
#X text 1506 382 Reads all the sound files into tables;
#X text 1154 533 One array for each row of the drum kit sequencer;
#X obj -34 237 line~;
#X msg -34 95 \$1 150;
#X obj 24 157 delay 150;
#X msg -10 192 0 150;
#X obj 699 652 *~ 0.65;
#X obj 785 656 *~ 0.65;
#X obj 861 662 *~ 0.65;
#X connect 0 0 1 0;
#X connect 1 0 73 0;
#X connect 2 0 3 0;
#X connect 3 0 4 0;
#X connect 4 0 71 0;
#X connect 5 0 8 0;
#X connect 8 0 6 0;
#X connect 9 0 11 0;
#X connect 11 0 12 0;
#X connect 13 0 14 0;
#X connect 14 0 15 0;
#X connect 17 0 164 0;
#X connect 18 0 17 1;
#X connect 18 0 101 1;
#X connect 18 0 102 1;
#X connect 18 0 103 1;
#X connect 19 0 18 0;
#X connect 20 0 62 0;
#X connect 21 0 63 0;
#X connect 21 1 64 0;
#X connect 21 2 65 0;
#X connect 21 3 66 0;
#X connect 21 4 67 0;
#X connect 21 5 68 0;
#X connect 21 6 69 0;
#X connect 21 7 70 0;
#X connect 22 0 27 0;
#X connect 22 0 160 0;
#X connect 23 0 24 0;
#X connect 23 0 26 0;
#X connect 24 0 23 1;
#X connect 25 0 29 0;
#X connect 26 0 28 0;
#X connect 27 0 23 0;
#X connect 27 0 137 0;
#X connect 28 0 25 0;
#X connect 29 0 30 0;
#X connect 29 1 31 0;
#X connect 29 2 32 0;
#X connect 29 3 33 0;
#X connect 29 4 42 0;
#X connect 29 5 43 0;
#X connect 29 6 44 0;
#X connect 29 7 45 0;
#X connect 30 0 169 0;
#X connect 30 0 170 0;
#X connect 31 0 169 0;
#X connect 31 0 170 0;
#X connect 32 0 169 0;
#X connect 32 0 170 0;
#X connect 33 0 169 0;
#X connect 33 0 170 0;
#X connect 34 0 35 0;
#X connect 35 0 30 1;
#X connect 36 0 37 0;
#X connect 37 0 31 1;
#X connect 38 0 39 0;
#X connect 39 0 32 1;
#X connect 40 0 41 0;
#X connect 41 0 33 1;
#X connect 42 0 169 0;
#X connect 42 0 170 0;
#X connect 43 0 169 0;
#X connect 43 0 170 0;
#X connect 44 0 169 0;
#X connect 44 0 170 0;
#X connect 45 0 169 0;
#X connect 45 0 170 0;
#X connect 46 0 47 0;
#X connect 47 0 42 1;
#X connect 48 0 49 0;
#X connect 49 0 43 1;
#X connect 50 0 51 0;
#X connect 51 0 44 1;
#X connect 52 0 53 0;
#X connect 53 0 45 1;
#X connect 54 0 34 0;
#X connect 55 0 36 0;
#X connect 56 0 38 0;
#X connect 57 0 40 0;
#X connect 58 0 46 0;
#X connect 59 0 48 0;
#X connect 60 0 50 0;
#X connect 61 0 52 0;
#X connect 62 0 17 0;
#X connect 63 0 54 0;
#X connect 64 0 55 0;
#X connect 65 0 56 0;
#X connect 66 0 57 0;
#X connect 67 0 58 0;
#X connect 68 0 59 0;
#X connect 69 0 60 0;
#X connect 70 0 61 0;
#X connect 71 0 88 0;
#X connect 71 1 104 0;
#X connect 72 0 146 0;
#X connect 72 1 146 1;
#X connect 73 0 19 0;
#X connect 73 1 21 0;
#X connect 73 2 83 0;
#X connect 73 2 130 0;
#X connect 73 3 22 0;
#X connect 73 4 76 0;
#X connect 73 5 132 0;
#X connect 74 0 147 0;
#X connect 74 1 147 1;
#X connect 75 0 74 0;
#X connect 76 0 77 0;
#X connect 77 0 78 0;
#X connect 78 0 79 0;
#X connect 78 0 82 0;
#X connect 79 0 80 0;
#X connect 80 0 81 0;
#X connect 81 0 95 0;
#X connect 81 0 96 0;
#X connect 81 0 97 0;
#X connect 82 0 78 1;
#X connect 83 0 127 1;
#X connect 83 1 128 1;
#X connect 83 2 129 1;
#X connect 84 0 92 0;
#X connect 84 1 94 0;
#X connect 84 2 93 0;
#X connect 87 0 72 0;
#X connect 88 0 87 0;
#X connect 92 0 85 0;
#X connect 93 0 120 0;
#X connect 94 0 86 0;
#X connect 95 0 98 0;
#X connect 96 0 99 0;
#X connect 97 0 100 0;
#X connect 98 0 117 0;
#X connect 99 0 118 0;
#X connect 100 0 119 0;
#X connect 101 0 172 0;
#X connect 102 0 173 0;
#X connect 103 0 174 0;
#X connect 104 0 75 0;
#X connect 105 0 106 0;
#X connect 106 0 107 0;
#X connect 107 0 108 0;
#X connect 108 0 101 0;
#X connect 109 0 110 0;
#X connect 110 0 111 0;
#X connect 111 0 112 0;
#X connect 112 0 102 0;
#X connect 113 0 114 0;
#X connect 114 0 115 0;
#X connect 115 0 116 0;
#X connect 116 0 103 0;
#X connect 117 0 105 0;
#X connect 118 0 109 0;
#X connect 119 0 113 0;
#X connect 121 0 122 0;
#X connect 122 0 83 0;
#X connect 123 0 124 0;
#X connect 124 0 83 0;
#X connect 125 0 126 0;
#X connect 126 0 83 0;
#X connect 127 0 85 1;
#X connect 127 0 86 1;
#X connect 127 0 120 1;
#X connect 128 0 84 0;
#X connect 129 0 92 1;
#X connect 129 0 94 1;
#X connect 129 0 93 1;
#X connect 130 0 128 0;
#X connect 130 1 129 0;
#X connect 130 2 127 0;
#X connect 131 0 130 0;
#X connect 132 0 133 0;
#X connect 133 0 23 1;
#X connect 133 0 78 1;
#X connect 134 0 138 0;
#X connect 134 1 150 0;
#X connect 136 0 139 0;
#X connect 137 0 136 0;
#X connect 138 0 137 1;
#X connect 139 0 135 0;
#X connect 140 0 137 1;
#X connect 140 0 136 0;
#X connect 142 0 148 0;
#X connect 143 0 149 0;
#X connect 144 0 134 0;
#X connect 145 0 134 1;
#X connect 146 0 27 1;
#X connect 146 0 142 0;
#X connect 147 0 77 1;
#X connect 147 0 143 0;
#X connect 148 0 144 0;
#X connect 148 1 144 1;
#X connect 149 0 145 0;
#X connect 149 1 145 1;
#X connect 150 0 140 0;
#X connect 160 0 165 0;
#X connect 164 0 141 0;
#X connect 164 0 141 1;
#X connect 165 0 62 1;
#X connect 168 0 20 0;
#X connect 169 0 168 0;
#X connect 170 0 171 0;
#X connect 171 0 168 0;
#X connect 172 0 161 0;
#X connect 172 0 161 1;
#X connect 173 0 162 0;
#X connect 173 0 162 1;
#X connect 174 0 163 0;
#X connect 174 0 163 1;
